<svg xmlns="http://www.w3.org/2000/svg" viewBox="0 0 110 32">
    <defs>
        <style>.a{fill:#df3b3b;}</style>
    </defs>
    <polygon class="a" points="35.32 0 35.32 13.08 44.81 13.08 44.81 32 57.94 32 57.94 13.08 67.42 13.08 67.42 0 35.32 0"/>
    <polygon class="a" points="0 0 0 13.08 9.5 13.08 9.5 32 22.61 32 22.61 13.08 32.11 13.08 32.11 0 0 0"/>
    <polygon class="a" points="94.79 0 83.77 12.68 83.77 0 70.64 0 70.64 32 83.77 32 83.77 17.93 94.79 32 110 32 96.3 15.3 110 0 94.79 0"/>
</svg>
