<svg xmlns="http://www.w3.org/2000/svg" width="22" height="16" viewBox="0 0 22 16">
    <polygon class="btn-toggle-icon" points="1 12 0 12 0 15 0 16 1 16 4 16 4 15 1 15 1 12"/>
    <polygon class="btn-toggle-icon" points="0 0 0 1 0 4 1 4 1 1 4 1 4 0 1 0 0 0"/>
    <path class="btn-toggle-icon"
          d="M404.57,160.57a5,5,0,1,0,5,5A5,5,0,0,0,404.57,160.57Zm0,8a3,3,0,1,1,3-3A3,3,0,0,1,404.57,168.57Z"
          transform="translate(-393.57 -157.57)"/>
    <polygon class="btn-toggle-icon" points="21 0 18 0 18 1 21 1 21 4 22 4 22 1 22 0 21 0"/>
    <polygon class="btn-toggle-icon" points="21 15 18 15 18 16 21 16 22 16 22 15 22 12 21 12 21 15"/>
</svg>
